<mxfile host="app.diagrams.net" modified="2023-10-06T19:50:04.969Z" agent="Mozilla/5.0 (Windows NT 10.0; Win64; x64) AppleWebKit/537.36 (KHTML, like Gecko) Chrome/117.0.0.0 Safari/537.36" etag="HgDUxac3VDR1C8NOCvOY" version="22.0.3" type="google">
  <diagram name="Page-1" id="qgRLsG_-mYV1hOsalCXe">
    <mxGraphModel grid="1" page="1" gridSize="10" guides="1" tooltips="1" connect="1" arrows="1" fold="1" pageScale="1" pageWidth="850" pageHeight="1100" math="0" shadow="0">
      <root>
        <mxCell id="0" />
        <mxCell id="1" parent="0" />
        <mxCell id="m66T7UfNkbhR7I4Ge39Q-2" value="" style="rounded=1;whiteSpace=wrap;html=1;dashed=1;fillColor=none;" vertex="1" parent="1">
          <mxGeometry x="-825" y="340" width="430" height="630" as="geometry" />
        </mxCell>
        <mxCell id="ExuCGmMKV_QQj0uylLsd-61" value="" style="ellipse;whiteSpace=wrap;html=1;aspect=fixed;" vertex="1" parent="1">
          <mxGeometry x="447.5" y="820" width="30" height="30" as="geometry" />
        </mxCell>
        <mxCell id="ExuCGmMKV_QQj0uylLsd-47" value="" style="ellipse;whiteSpace=wrap;html=1;aspect=fixed;" vertex="1" parent="1">
          <mxGeometry x="85" y="390" width="30" height="30" as="geometry" />
        </mxCell>
        <mxCell id="R8Q7hkDA5RHahlh6cMOI-1" value="" style="rounded=1;whiteSpace=wrap;html=1;rotation=-90;fillColor=none;" vertex="1" parent="1">
          <mxGeometry x="-1050" y="322.5" width="880" height="450" as="geometry" />
        </mxCell>
        <mxCell id="R8Q7hkDA5RHahlh6cMOI-2" value="" style="rounded=1;whiteSpace=wrap;html=1;fillColor=none;" vertex="1" parent="1">
          <mxGeometry x="20" y="40" width="170" height="400" as="geometry" />
        </mxCell>
        <mxCell id="R8Q7hkDA5RHahlh6cMOI-3" value="" style="rounded=1;whiteSpace=wrap;html=1;fillColor=none;" vertex="1" parent="1">
          <mxGeometry x="204" y="40" width="170" height="400" as="geometry" />
        </mxCell>
        <mxCell id="R8Q7hkDA5RHahlh6cMOI-4" value="" style="rounded=1;whiteSpace=wrap;html=1;fillColor=none;" vertex="1" parent="1">
          <mxGeometry x="20" y="460" width="170" height="400" as="geometry" />
        </mxCell>
        <mxCell id="R8Q7hkDA5RHahlh6cMOI-6" value="" style="rounded=1;whiteSpace=wrap;html=1;fillColor=none;" vertex="1" parent="1">
          <mxGeometry x="380" y="460" width="170" height="400" as="geometry" />
        </mxCell>
        <mxCell id="R8Q7hkDA5RHahlh6cMOI-5" value="" style="rounded=1;whiteSpace=wrap;html=1;fillColor=none;" vertex="1" parent="1">
          <mxGeometry x="204" y="460" width="170" height="400" as="geometry" />
        </mxCell>
        <mxCell id="ExuCGmMKV_QQj0uylLsd-2" value="Main Loop&amp;nbsp;" style="text;html=1;strokeColor=none;fillColor=none;align=center;verticalAlign=middle;whiteSpace=wrap;rounded=0;" vertex="1" parent="1">
          <mxGeometry x="-640" y="50" width="60" height="30" as="geometry" />
        </mxCell>
        <mxCell id="ExuCGmMKV_QQj0uylLsd-3" value="Initialize System" style="text;html=1;strokeColor=none;fillColor=none;align=center;verticalAlign=middle;whiteSpace=wrap;rounded=0;" vertex="1" parent="1">
          <mxGeometry x="75" y="40" width="60" height="30" as="geometry" />
        </mxCell>
        <mxCell id="ExuCGmMKV_QQj0uylLsd-6" value="Check Motor Subsystem&amp;nbsp;" style="text;html=1;strokeColor=none;fillColor=none;align=center;verticalAlign=middle;whiteSpace=wrap;rounded=0;" vertex="1" parent="1">
          <mxGeometry x="70" y="470" width="60" height="30" as="geometry" />
        </mxCell>
        <mxCell id="ExuCGmMKV_QQj0uylLsd-7" value="Communication Subsystem" style="text;html=1;strokeColor=none;fillColor=none;align=center;verticalAlign=middle;whiteSpace=wrap;rounded=0;" vertex="1" parent="1">
          <mxGeometry x="254" y="40" width="60" height="30" as="geometry" />
        </mxCell>
        <mxCell id="ExuCGmMKV_QQj0uylLsd-8" value="Check Pressure Subsystem" style="text;html=1;strokeColor=none;fillColor=none;align=center;verticalAlign=middle;whiteSpace=wrap;rounded=0;" vertex="1" parent="1">
          <mxGeometry x="259" y="470" width="60" height="30" as="geometry" />
        </mxCell>
        <mxCell id="ExuCGmMKV_QQj0uylLsd-9" value="Water Level Subsystem" style="text;html=1;strokeColor=none;fillColor=none;align=center;verticalAlign=middle;whiteSpace=wrap;rounded=0;" vertex="1" parent="1">
          <mxGeometry x="432.5" y="470" width="60" height="50" as="geometry" />
        </mxCell>
        <mxCell id="ExuCGmMKV_QQj0uylLsd-25" style="edgeStyle=orthogonalEdgeStyle;rounded=0;orthogonalLoop=1;jettySize=auto;html=1;exitX=0.5;exitY=1;exitDx=0;exitDy=0;" edge="1" parent="1" source="ExuCGmMKV_QQj0uylLsd-10" target="ExuCGmMKV_QQj0uylLsd-23">
          <mxGeometry relative="1" as="geometry" />
        </mxCell>
        <mxCell id="ExuCGmMKV_QQj0uylLsd-10" value="" style="ellipse;whiteSpace=wrap;html=1;aspect=fixed;fillColor=#000000;" vertex="1" parent="1">
          <mxGeometry x="-625" y="90" width="30" height="30" as="geometry" />
        </mxCell>
        <mxCell id="ExuCGmMKV_QQj0uylLsd-43" style="edgeStyle=orthogonalEdgeStyle;rounded=0;orthogonalLoop=1;jettySize=auto;html=1;exitX=0.5;exitY=1;exitDx=0;exitDy=0;entryX=0.5;entryY=0;entryDx=0;entryDy=0;" edge="1" parent="1" source="ExuCGmMKV_QQj0uylLsd-11" target="ExuCGmMKV_QQj0uylLsd-39">
          <mxGeometry relative="1" as="geometry" />
        </mxCell>
        <mxCell id="ExuCGmMKV_QQj0uylLsd-11" value="" style="ellipse;whiteSpace=wrap;html=1;aspect=fixed;fillColor=#000000;" vertex="1" parent="1">
          <mxGeometry x="90" y="80" width="30" height="30" as="geometry" />
        </mxCell>
        <mxCell id="ExuCGmMKV_QQj0uylLsd-12" value="" style="ellipse;whiteSpace=wrap;html=1;aspect=fixed;fillColor=#000000;" vertex="1" parent="1">
          <mxGeometry x="85" y="510" width="30" height="30" as="geometry" />
        </mxCell>
        <mxCell id="ExuCGmMKV_QQj0uylLsd-13" value="" style="ellipse;whiteSpace=wrap;html=1;aspect=fixed;fillColor=#000000;" vertex="1" parent="1">
          <mxGeometry x="274" y="80" width="30" height="30" as="geometry" />
        </mxCell>
        <mxCell id="ExuCGmMKV_QQj0uylLsd-14" value="" style="ellipse;whiteSpace=wrap;html=1;aspect=fixed;fillColor=#000000;" vertex="1" parent="1">
          <mxGeometry x="274" y="510" width="30" height="30" as="geometry" />
        </mxCell>
        <mxCell id="ExuCGmMKV_QQj0uylLsd-65" style="edgeStyle=orthogonalEdgeStyle;rounded=0;orthogonalLoop=1;jettySize=auto;html=1;exitX=0.5;exitY=1;exitDx=0;exitDy=0;entryX=0.5;entryY=0;entryDx=0;entryDy=0;" edge="1" parent="1" source="ExuCGmMKV_QQj0uylLsd-15" target="ExuCGmMKV_QQj0uylLsd-54">
          <mxGeometry relative="1" as="geometry" />
        </mxCell>
        <mxCell id="ExuCGmMKV_QQj0uylLsd-15" value="" style="ellipse;whiteSpace=wrap;html=1;aspect=fixed;fillColor=#000000;" vertex="1" parent="1">
          <mxGeometry x="447.5" y="530" width="30" height="30" as="geometry" />
        </mxCell>
        <mxCell id="ExuCGmMKV_QQj0uylLsd-29" style="edgeStyle=orthogonalEdgeStyle;rounded=0;orthogonalLoop=1;jettySize=auto;html=1;exitX=0.5;exitY=1;exitDx=0;exitDy=0;entryX=0.5;entryY=0;entryDx=0;entryDy=0;" edge="1" parent="1" source="ExuCGmMKV_QQj0uylLsd-23" target="ExuCGmMKV_QQj0uylLsd-28">
          <mxGeometry relative="1" as="geometry" />
        </mxCell>
        <mxCell id="ExuCGmMKV_QQj0uylLsd-23" value="" style="rhombus;whiteSpace=wrap;html=1;" vertex="1" parent="1">
          <mxGeometry x="-625" y="140" width="30" height="30" as="geometry" />
        </mxCell>
        <mxCell id="ExuCGmMKV_QQj0uylLsd-34" style="edgeStyle=orthogonalEdgeStyle;rounded=0;orthogonalLoop=1;jettySize=auto;html=1;exitX=0.5;exitY=1;exitDx=0;exitDy=0;entryX=0.5;entryY=0;entryDx=0;entryDy=0;" edge="1" parent="1" source="ExuCGmMKV_QQj0uylLsd-28" target="ExuCGmMKV_QQj0uylLsd-32">
          <mxGeometry relative="1" as="geometry" />
        </mxCell>
        <mxCell id="ExuCGmMKV_QQj0uylLsd-28" value="" style="rounded=1;whiteSpace=wrap;html=1;" vertex="1" parent="1">
          <mxGeometry x="-668.75" y="200" width="117.5" height="50" as="geometry" />
        </mxCell>
        <mxCell id="ExuCGmMKV_QQj0uylLsd-30" value="Initialize System" style="text;html=1;strokeColor=none;fillColor=none;align=center;verticalAlign=middle;whiteSpace=wrap;rounded=0;" vertex="1" parent="1">
          <mxGeometry x="-640" y="210" width="60" height="30" as="geometry" />
        </mxCell>
        <mxCell id="ExuCGmMKV_QQj0uylLsd-36" style="edgeStyle=orthogonalEdgeStyle;rounded=0;orthogonalLoop=1;jettySize=auto;html=1;exitX=0.5;exitY=1;exitDx=0;exitDy=0;entryX=0.5;entryY=0;entryDx=0;entryDy=0;" edge="1" parent="1" source="ExuCGmMKV_QQj0uylLsd-32" target="ExuCGmMKV_QQj0uylLsd-35">
          <mxGeometry relative="1" as="geometry" />
        </mxCell>
        <mxCell id="ExuCGmMKV_QQj0uylLsd-32" value="" style="rounded=1;whiteSpace=wrap;html=1;" vertex="1" parent="1">
          <mxGeometry x="-668.75" y="280" width="117.5" height="50" as="geometry" />
        </mxCell>
        <mxCell id="ExuCGmMKV_QQj0uylLsd-33" value="Enable Interrupts" style="text;html=1;strokeColor=none;fillColor=none;align=center;verticalAlign=middle;whiteSpace=wrap;rounded=0;" vertex="1" parent="1">
          <mxGeometry x="-640" y="290" width="60" height="30" as="geometry" />
        </mxCell>
        <mxCell id="ExuCGmMKV_QQj0uylLsd-69" style="edgeStyle=orthogonalEdgeStyle;rounded=0;orthogonalLoop=1;jettySize=auto;html=1;exitX=0.5;exitY=1;exitDx=0;exitDy=0;entryX=0.5;entryY=0;entryDx=0;entryDy=0;" edge="1" parent="1" source="ExuCGmMKV_QQj0uylLsd-35" target="ExuCGmMKV_QQj0uylLsd-66">
          <mxGeometry relative="1" as="geometry" />
        </mxCell>
        <mxCell id="ExuCGmMKV_QQj0uylLsd-35" value="" style="rhombus;whiteSpace=wrap;html=1;" vertex="1" parent="1">
          <mxGeometry x="-625" y="360" width="30" height="30" as="geometry" />
        </mxCell>
        <mxCell id="ExuCGmMKV_QQj0uylLsd-44" style="edgeStyle=orthogonalEdgeStyle;rounded=0;orthogonalLoop=1;jettySize=auto;html=1;exitX=0.5;exitY=1;exitDx=0;exitDy=0;entryX=0.5;entryY=0;entryDx=0;entryDy=0;" edge="1" parent="1" source="ExuCGmMKV_QQj0uylLsd-39" target="ExuCGmMKV_QQj0uylLsd-41">
          <mxGeometry relative="1" as="geometry" />
        </mxCell>
        <mxCell id="ExuCGmMKV_QQj0uylLsd-39" value="" style="rounded=1;whiteSpace=wrap;html=1;" vertex="1" parent="1">
          <mxGeometry x="46.25" y="140" width="117.5" height="50" as="geometry" />
        </mxCell>
        <mxCell id="ExuCGmMKV_QQj0uylLsd-45" style="edgeStyle=orthogonalEdgeStyle;rounded=0;orthogonalLoop=1;jettySize=auto;html=1;exitX=0.5;exitY=1;exitDx=0;exitDy=0;entryX=0.5;entryY=0;entryDx=0;entryDy=0;" edge="1" parent="1" source="ExuCGmMKV_QQj0uylLsd-41" target="ExuCGmMKV_QQj0uylLsd-42">
          <mxGeometry relative="1" as="geometry" />
        </mxCell>
        <mxCell id="ExuCGmMKV_QQj0uylLsd-41" value="" style="rounded=1;whiteSpace=wrap;html=1;" vertex="1" parent="1">
          <mxGeometry x="46.25" y="225" width="117.5" height="50" as="geometry" />
        </mxCell>
        <mxCell id="ExuCGmMKV_QQj0uylLsd-42" value="" style="rounded=1;whiteSpace=wrap;html=1;" vertex="1" parent="1">
          <mxGeometry x="46.25" y="310" width="117.5" height="50" as="geometry" />
        </mxCell>
        <mxCell id="ExuCGmMKV_QQj0uylLsd-46" value="" style="ellipse;whiteSpace=wrap;html=1;aspect=fixed;fillColor=#000000;direction=south;" vertex="1" parent="1">
          <mxGeometry x="91" y="396" width="18" height="18" as="geometry" />
        </mxCell>
        <mxCell id="ExuCGmMKV_QQj0uylLsd-50" style="edgeStyle=orthogonalEdgeStyle;rounded=0;orthogonalLoop=1;jettySize=auto;html=1;exitX=0.5;exitY=1;exitDx=0;exitDy=0;entryX=0.471;entryY=0.875;entryDx=0;entryDy=0;entryPerimeter=0;" edge="1" parent="1" source="ExuCGmMKV_QQj0uylLsd-42" target="R8Q7hkDA5RHahlh6cMOI-2">
          <mxGeometry relative="1" as="geometry" />
        </mxCell>
        <mxCell id="ExuCGmMKV_QQj0uylLsd-51" value="Initialize EUSART, Clocks, Timers" style="text;html=1;strokeColor=none;fillColor=none;align=center;verticalAlign=middle;whiteSpace=wrap;rounded=0;" vertex="1" parent="1">
          <mxGeometry x="60" y="150" width="90" height="30" as="geometry" />
        </mxCell>
        <mxCell id="ExuCGmMKV_QQj0uylLsd-52" value="Reset Variables &amp;amp; Set Hardware Registers" style="text;html=1;strokeColor=none;fillColor=none;align=center;verticalAlign=middle;whiteSpace=wrap;rounded=0;" vertex="1" parent="1">
          <mxGeometry x="60" y="235" width="90" height="30" as="geometry" />
        </mxCell>
        <mxCell id="ExuCGmMKV_QQj0uylLsd-53" value="Establish Communication" style="text;html=1;strokeColor=none;fillColor=none;align=center;verticalAlign=middle;whiteSpace=wrap;rounded=0;" vertex="1" parent="1">
          <mxGeometry x="70" y="320" width="60" height="30" as="geometry" />
        </mxCell>
        <mxCell id="ExuCGmMKV_QQj0uylLsd-64" style="edgeStyle=orthogonalEdgeStyle;rounded=0;orthogonalLoop=1;jettySize=auto;html=1;exitX=0.5;exitY=1;exitDx=0;exitDy=0;entryX=0.5;entryY=0;entryDx=0;entryDy=0;" edge="1" parent="1" source="ExuCGmMKV_QQj0uylLsd-54" target="ExuCGmMKV_QQj0uylLsd-56">
          <mxGeometry relative="1" as="geometry" />
        </mxCell>
        <mxCell id="ExuCGmMKV_QQj0uylLsd-54" value="" style="rounded=1;whiteSpace=wrap;html=1;" vertex="1" parent="1">
          <mxGeometry x="403.75" y="580" width="117.5" height="50" as="geometry" />
        </mxCell>
        <mxCell id="ExuCGmMKV_QQj0uylLsd-55" value="Write/Read Resistance Value" style="text;html=1;strokeColor=none;fillColor=none;align=center;verticalAlign=middle;whiteSpace=wrap;rounded=0;" vertex="1" parent="1">
          <mxGeometry x="432.5" y="590" width="60" height="30" as="geometry" />
        </mxCell>
        <mxCell id="ExuCGmMKV_QQj0uylLsd-63" style="edgeStyle=orthogonalEdgeStyle;rounded=0;orthogonalLoop=1;jettySize=auto;html=1;exitX=0.5;exitY=1;exitDx=0;exitDy=0;entryX=0;entryY=0.5;entryDx=0;entryDy=0;" edge="1" parent="1">
          <mxGeometry relative="1" as="geometry">
            <mxPoint x="462.36" y="704" as="sourcePoint" />
            <mxPoint x="462.3599999999998" y="820" as="targetPoint" />
          </mxGeometry>
        </mxCell>
        <mxCell id="ExuCGmMKV_QQj0uylLsd-56" value="" style="rounded=1;whiteSpace=wrap;html=1;" vertex="1" parent="1">
          <mxGeometry x="403.75" y="660" width="117.5" height="50" as="geometry" />
        </mxCell>
        <mxCell id="ExuCGmMKV_QQj0uylLsd-58" value="Send Values to Communication &amp;nbsp;Subsystem" style="text;html=1;strokeColor=none;fillColor=none;align=center;verticalAlign=middle;whiteSpace=wrap;rounded=0;" vertex="1" parent="1">
          <mxGeometry x="432.5" y="670" width="65" height="30" as="geometry" />
        </mxCell>
        <mxCell id="ExuCGmMKV_QQj0uylLsd-60" value="" style="ellipse;whiteSpace=wrap;html=1;aspect=fixed;fillColor=#000000;direction=south;" vertex="1" parent="1">
          <mxGeometry x="453.5" y="826" width="18" height="18" as="geometry" />
        </mxCell>
        <mxCell id="ExuCGmMKV_QQj0uylLsd-70" style="edgeStyle=orthogonalEdgeStyle;rounded=0;orthogonalLoop=1;jettySize=auto;html=1;exitX=0.5;exitY=1;exitDx=0;exitDy=0;entryX=0.5;entryY=0;entryDx=0;entryDy=0;" edge="1" parent="1" source="ExuCGmMKV_QQj0uylLsd-66" target="ExuCGmMKV_QQj0uylLsd-67">
          <mxGeometry relative="1" as="geometry" />
        </mxCell>
        <mxCell id="ExuCGmMKV_QQj0uylLsd-66" value="" style="rounded=1;whiteSpace=wrap;html=1;" vertex="1" parent="1">
          <mxGeometry x="-668.75" y="430" width="117.5" height="50" as="geometry" />
        </mxCell>
        <mxCell id="ExuCGmMKV_QQj0uylLsd-71" style="edgeStyle=orthogonalEdgeStyle;rounded=0;orthogonalLoop=1;jettySize=auto;html=1;exitX=0.5;exitY=1;exitDx=0;exitDy=0;entryX=0.5;entryY=0;entryDx=0;entryDy=0;" edge="1" parent="1" source="ExuCGmMKV_QQj0uylLsd-67">
          <mxGeometry relative="1" as="geometry">
            <mxPoint x="-610" y="620" as="targetPoint" />
          </mxGeometry>
        </mxCell>
        <mxCell id="ExuCGmMKV_QQj0uylLsd-67" value="" style="rounded=1;whiteSpace=wrap;html=1;" vertex="1" parent="1">
          <mxGeometry x="-668.75" y="530" width="117.5" height="50" as="geometry" />
        </mxCell>
        <mxCell id="ExuCGmMKV_QQj0uylLsd-72" value="Check Pressure Sensor" style="text;html=1;strokeColor=none;fillColor=none;align=center;verticalAlign=middle;whiteSpace=wrap;rounded=0;" vertex="1" parent="1">
          <mxGeometry x="-640" y="440" width="60" height="30" as="geometry" />
        </mxCell>
        <mxCell id="ExuCGmMKV_QQj0uylLsd-73" value="Check Water Level" style="text;html=1;strokeColor=none;fillColor=none;align=center;verticalAlign=middle;whiteSpace=wrap;rounded=0;" vertex="1" parent="1">
          <mxGeometry x="-640" y="540" width="60" height="30" as="geometry" />
        </mxCell>
        <mxCell id="m66T7UfNkbhR7I4Ge39Q-5" style="edgeStyle=orthogonalEdgeStyle;rounded=0;orthogonalLoop=1;jettySize=auto;html=1;" edge="1" parent="1" source="m66T7UfNkbhR7I4Ge39Q-1" target="m66T7UfNkbhR7I4Ge39Q-4">
          <mxGeometry relative="1" as="geometry" />
        </mxCell>
        <mxCell id="m66T7UfNkbhR7I4Ge39Q-15" style="edgeStyle=orthogonalEdgeStyle;rounded=0;orthogonalLoop=1;jettySize=auto;html=1;exitX=0;exitY=0.5;exitDx=0;exitDy=0;" edge="1" parent="1" source="m66T7UfNkbhR7I4Ge39Q-1" target="m66T7UfNkbhR7I4Ge39Q-13">
          <mxGeometry relative="1" as="geometry">
            <Array as="points">
              <mxPoint x="-692.5" y="635" />
              <mxPoint x="-692.5" y="710" />
              <mxPoint x="-663.5" y="710" />
            </Array>
          </mxGeometry>
        </mxCell>
        <mxCell id="m66T7UfNkbhR7I4Ge39Q-1" value="" style="rhombus;whiteSpace=wrap;html=1;" vertex="1" parent="1">
          <mxGeometry x="-625" y="620" width="30" height="30" as="geometry" />
        </mxCell>
        <mxCell id="m66T7UfNkbhR7I4Ge39Q-3" value="Interrupts Enabled" style="text;html=1;strokeColor=none;fillColor=none;align=center;verticalAlign=middle;whiteSpace=wrap;rounded=0;" vertex="1" parent="1">
          <mxGeometry x="-782.5" y="340" width="120" height="30" as="geometry" />
        </mxCell>
        <mxCell id="8SBCWocJeuw-kmnCz6ny-2" style="edgeStyle=orthogonalEdgeStyle;rounded=0;orthogonalLoop=1;jettySize=auto;html=1;exitX=0.5;exitY=1;exitDx=0;exitDy=0;entryX=1;entryY=0.5;entryDx=0;entryDy=0;" edge="1" parent="1" source="m66T7UfNkbhR7I4Ge39Q-4" target="m66T7UfNkbhR7I4Ge39Q-13">
          <mxGeometry relative="1" as="geometry" />
        </mxCell>
        <mxCell id="m66T7UfNkbhR7I4Ge39Q-4" value="Trigger Motor Subsystem" style="rounded=1;whiteSpace=wrap;html=1;" vertex="1" parent="1">
          <mxGeometry x="-589.5" y="720" width="117.5" height="50" as="geometry" />
        </mxCell>
        <mxCell id="m66T7UfNkbhR7I4Ge39Q-17" style="edgeStyle=orthogonalEdgeStyle;rounded=0;orthogonalLoop=1;jettySize=auto;html=1;exitX=0.5;exitY=1;exitDx=0;exitDy=0;entryX=0;entryY=0.5;entryDx=0;entryDy=0;" edge="1" parent="1" source="m66T7UfNkbhR7I4Ge39Q-13" target="m66T7UfNkbhR7I4Ge39Q-16">
          <mxGeometry relative="1" as="geometry" />
        </mxCell>
        <mxCell id="m66T7UfNkbhR7I4Ge39Q-13" value="Activate Communication Subsystem" style="rounded=1;whiteSpace=wrap;html=1;" vertex="1" parent="1">
          <mxGeometry x="-722.5" y="770" width="117.5" height="50" as="geometry" />
        </mxCell>
        <mxCell id="m66T7UfNkbhR7I4Ge39Q-16" value="" style="rhombus;whiteSpace=wrap;html=1;" vertex="1" parent="1">
          <mxGeometry x="-625" y="910" width="30" height="30" as="geometry" />
        </mxCell>
        <mxCell id="m66T7UfNkbhR7I4Ge39Q-21" value="If Timer&amp;gt;=24 || Water Level &amp;gt; 12" style="text;html=1;strokeColor=none;fillColor=none;align=center;verticalAlign=middle;whiteSpace=wrap;rounded=0;" vertex="1" parent="1">
          <mxGeometry x="-595" y="605" width="92.5" height="30" as="geometry" />
        </mxCell>
        <mxCell id="m66T7UfNkbhR7I4Ge39Q-23" value="If Timer&amp;lt;24 || Water Level &amp;lt; 12" style="text;html=1;strokeColor=none;fillColor=none;align=center;verticalAlign=middle;whiteSpace=wrap;rounded=0;" vertex="1" parent="1">
          <mxGeometry x="-722.5" y="605" width="102.5" height="30" as="geometry" />
        </mxCell>
        <mxCell id="m66T7UfNkbhR7I4Ge39Q-24" style="edgeStyle=orthogonalEdgeStyle;rounded=0;orthogonalLoop=1;jettySize=auto;html=1;exitX=0.5;exitY=1;exitDx=0;exitDy=0;" edge="1" parent="1" source="m66T7UfNkbhR7I4Ge39Q-16">
          <mxGeometry relative="1" as="geometry">
            <mxPoint x="-622.5" y="370" as="targetPoint" />
            <Array as="points">
              <mxPoint x="-610.5" y="960" />
              <mxPoint x="-742.5" y="960" />
              <mxPoint x="-742.5" y="370" />
              <mxPoint x="-622.5" y="370" />
            </Array>
          </mxGeometry>
        </mxCell>
        <mxCell id="bNNDb-d6UYjImaujRCh0-1" value="" style="ellipse;whiteSpace=wrap;html=1;aspect=fixed;" vertex="1" parent="1">
          <mxGeometry x="270.25" y="790" width="30" height="30" as="geometry" />
        </mxCell>
        <mxCell id="bNNDb-d6UYjImaujRCh0-2" style="edgeStyle=orthogonalEdgeStyle;rounded=0;orthogonalLoop=1;jettySize=auto;html=1;exitX=0.5;exitY=1;exitDx=0;exitDy=0;entryX=0.5;entryY=0;entryDx=0;entryDy=0;" edge="1" parent="1" source="bNNDb-d6UYjImaujRCh0-3" target="bNNDb-d6UYjImaujRCh0-6">
          <mxGeometry relative="1" as="geometry" />
        </mxCell>
        <mxCell id="bNNDb-d6UYjImaujRCh0-3" value="" style="rounded=1;whiteSpace=wrap;html=1;" vertex="1" parent="1">
          <mxGeometry x="226.5" y="550" width="117.5" height="50" as="geometry" />
        </mxCell>
        <mxCell id="bNNDb-d6UYjImaujRCh0-4" value="Write/Read Resistance Value" style="text;html=1;strokeColor=none;fillColor=none;align=center;verticalAlign=middle;whiteSpace=wrap;rounded=0;" vertex="1" parent="1">
          <mxGeometry x="255.25" y="560" width="60" height="30" as="geometry" />
        </mxCell>
        <mxCell id="bNNDb-d6UYjImaujRCh0-5" style="edgeStyle=orthogonalEdgeStyle;rounded=0;orthogonalLoop=1;jettySize=auto;html=1;exitX=0.5;exitY=1;exitDx=0;exitDy=0;entryX=0;entryY=0.5;entryDx=0;entryDy=0;" edge="1" parent="1">
          <mxGeometry relative="1" as="geometry">
            <mxPoint x="285.11" y="674" as="sourcePoint" />
            <mxPoint x="285.1099999999998" y="790" as="targetPoint" />
          </mxGeometry>
        </mxCell>
        <mxCell id="bNNDb-d6UYjImaujRCh0-6" value="" style="rounded=1;whiteSpace=wrap;html=1;" vertex="1" parent="1">
          <mxGeometry x="226.5" y="630" width="117.5" height="50" as="geometry" />
        </mxCell>
        <mxCell id="bNNDb-d6UYjImaujRCh0-7" value="Send Values to Communication &amp;nbsp;Subsystem" style="text;html=1;strokeColor=none;fillColor=none;align=center;verticalAlign=middle;whiteSpace=wrap;rounded=0;" vertex="1" parent="1">
          <mxGeometry x="255.25" y="640" width="65" height="30" as="geometry" />
        </mxCell>
        <mxCell id="bNNDb-d6UYjImaujRCh0-8" value="" style="ellipse;whiteSpace=wrap;html=1;aspect=fixed;fillColor=#000000;direction=south;" vertex="1" parent="1">
          <mxGeometry x="276.25" y="796" width="18" height="18" as="geometry" />
        </mxCell>
        <mxCell id="bNNDb-d6UYjImaujRCh0-9" value="" style="ellipse;whiteSpace=wrap;html=1;aspect=fixed;" vertex="1" parent="1">
          <mxGeometry x="85" y="784" width="30" height="30" as="geometry" />
        </mxCell>
        <mxCell id="bNNDb-d6UYjImaujRCh0-10" style="edgeStyle=orthogonalEdgeStyle;rounded=0;orthogonalLoop=1;jettySize=auto;html=1;exitX=0.5;exitY=1;exitDx=0;exitDy=0;entryX=0.5;entryY=0;entryDx=0;entryDy=0;" edge="1" parent="1" source="bNNDb-d6UYjImaujRCh0-11" target="bNNDb-d6UYjImaujRCh0-14">
          <mxGeometry relative="1" as="geometry" />
        </mxCell>
        <mxCell id="bNNDb-d6UYjImaujRCh0-11" value="" style="rounded=1;whiteSpace=wrap;html=1;" vertex="1" parent="1">
          <mxGeometry x="41.25" y="544" width="117.5" height="50" as="geometry" />
        </mxCell>
        <mxCell id="bNNDb-d6UYjImaujRCh0-12" value="Turn on for 10s" style="text;html=1;strokeColor=none;fillColor=none;align=center;verticalAlign=middle;whiteSpace=wrap;rounded=0;" vertex="1" parent="1">
          <mxGeometry x="70" y="554" width="60" height="30" as="geometry" />
        </mxCell>
        <mxCell id="bNNDb-d6UYjImaujRCh0-13" style="edgeStyle=orthogonalEdgeStyle;rounded=0;orthogonalLoop=1;jettySize=auto;html=1;exitX=0.5;exitY=1;exitDx=0;exitDy=0;entryX=0;entryY=0.5;entryDx=0;entryDy=0;" edge="1" parent="1">
          <mxGeometry relative="1" as="geometry">
            <mxPoint x="99.86000000000001" y="668" as="sourcePoint" />
            <mxPoint x="99.85999999999979" y="784" as="targetPoint" />
          </mxGeometry>
        </mxCell>
        <mxCell id="bNNDb-d6UYjImaujRCh0-14" value="" style="rounded=1;whiteSpace=wrap;html=1;" vertex="1" parent="1">
          <mxGeometry x="41.25" y="624" width="117.5" height="50" as="geometry" />
        </mxCell>
        <mxCell id="bNNDb-d6UYjImaujRCh0-15" value="Reverse Direction&amp;nbsp;" style="text;html=1;strokeColor=none;fillColor=none;align=center;verticalAlign=middle;whiteSpace=wrap;rounded=0;" vertex="1" parent="1">
          <mxGeometry x="70" y="634" width="65" height="30" as="geometry" />
        </mxCell>
        <mxCell id="bNNDb-d6UYjImaujRCh0-16" value="" style="ellipse;whiteSpace=wrap;html=1;aspect=fixed;fillColor=#000000;direction=south;" vertex="1" parent="1">
          <mxGeometry x="91" y="790" width="18" height="18" as="geometry" />
        </mxCell>
        <mxCell id="bNNDb-d6UYjImaujRCh0-17" value="" style="ellipse;whiteSpace=wrap;html=1;aspect=fixed;" vertex="1" parent="1">
          <mxGeometry x="274" y="355" width="30" height="30" as="geometry" />
        </mxCell>
        <mxCell id="bNNDb-d6UYjImaujRCh0-18" style="edgeStyle=orthogonalEdgeStyle;rounded=0;orthogonalLoop=1;jettySize=auto;html=1;exitX=0.5;exitY=1;exitDx=0;exitDy=0;entryX=0.5;entryY=0;entryDx=0;entryDy=0;" edge="1" parent="1" source="bNNDb-d6UYjImaujRCh0-19" target="bNNDb-d6UYjImaujRCh0-22">
          <mxGeometry relative="1" as="geometry" />
        </mxCell>
        <mxCell id="bNNDb-d6UYjImaujRCh0-19" value="" style="rounded=1;whiteSpace=wrap;html=1;" vertex="1" parent="1">
          <mxGeometry x="230.25" y="115" width="117.5" height="50" as="geometry" />
        </mxCell>
        <mxCell id="bNNDb-d6UYjImaujRCh0-20" value="Process incoming Data&amp;nbsp;" style="text;html=1;strokeColor=none;fillColor=none;align=center;verticalAlign=middle;whiteSpace=wrap;rounded=0;" vertex="1" parent="1">
          <mxGeometry x="259" y="125" width="60" height="30" as="geometry" />
        </mxCell>
        <mxCell id="bNNDb-d6UYjImaujRCh0-21" style="edgeStyle=orthogonalEdgeStyle;rounded=0;orthogonalLoop=1;jettySize=auto;html=1;exitX=0.5;exitY=1;exitDx=0;exitDy=0;entryX=0;entryY=0.5;entryDx=0;entryDy=0;" edge="1" parent="1">
          <mxGeometry relative="1" as="geometry">
            <mxPoint x="288.86" y="239" as="sourcePoint" />
            <mxPoint x="288.8599999999998" y="355" as="targetPoint" />
          </mxGeometry>
        </mxCell>
        <mxCell id="bNNDb-d6UYjImaujRCh0-22" value="" style="rounded=1;whiteSpace=wrap;html=1;" vertex="1" parent="1">
          <mxGeometry x="230.25" y="195" width="117.5" height="50" as="geometry" />
        </mxCell>
        <mxCell id="bNNDb-d6UYjImaujRCh0-23" value="Send Values to EUSART" style="text;html=1;strokeColor=none;fillColor=none;align=center;verticalAlign=middle;whiteSpace=wrap;rounded=0;" vertex="1" parent="1">
          <mxGeometry x="259" y="205" width="65" height="30" as="geometry" />
        </mxCell>
        <mxCell id="bNNDb-d6UYjImaujRCh0-24" value="" style="ellipse;whiteSpace=wrap;html=1;aspect=fixed;fillColor=#000000;direction=south;" vertex="1" parent="1">
          <mxGeometry x="280" y="361" width="18" height="18" as="geometry" />
        </mxCell>
        <mxCell id="8SBCWocJeuw-kmnCz6ny-3" style="edgeStyle=orthogonalEdgeStyle;rounded=0;orthogonalLoop=1;jettySize=auto;html=1;exitX=0.5;exitY=1;exitDx=0;exitDy=0;" edge="1" parent="1" source="ExuCGmMKV_QQj0uylLsd-8" target="ExuCGmMKV_QQj0uylLsd-8">
          <mxGeometry relative="1" as="geometry" />
        </mxCell>
      </root>
    </mxGraphModel>
  </diagram>
</mxfile>
